General
Unique ID                                : 239785427692981303449695191699793663416 (0xB464FE58C772000F8B175E05D7C455B8)
Complete name                            : C:UsersMichael SchumacherDownloadsF I L M O V IGhost in the Shell (1995) 720p BRRip by maric62985Ghost in the Shell (1995) 720p by maric62985.mkv
Format                                   : Matroska
Format version                           : Version 4 / Version 2
File size                                : 916 MiB
Duration                                 : 1h 23mn
Overall bit rate                         : 1 540 Kbps
Movie name                               : Ghost_in_the_Shell_(1995)_[720p,BluRay,x264,DTS-ES]_-_THORA
Encoded date                             : UTC 2010-02-22 21:41:31
Writing application                      : mkvmerge v5.9.0 ('On The Loose') built on Dec  9 2012 15:37:01
Writing library                          : Lavf53.24.0
AUTHOR                                   : Avidemux
Attachment                               : Yes / Yes / Yes / Yes

Video
ID                                       : 1
Format                                   : AVC
Format/Info                              : Advanced Video Codec
Format profile                           : High@L3.1
Format settings, CABAC                   : Yes
Format settings, ReFrames                : 3 frames
Muxing mode                              : Header stripping
Codec ID                                 : V_MPEG4/ISO/AVC
Duration                                 : 1h 23mn
Bit rate                                 : 791 Kbps
Width                                    : 1 280 pixels
Height                                   : 688 pixels
Display aspect ratio                     : 1.85:1
Frame rate mode                          : Constant
Frame rate                               : 23.976 fps
Color space                              : YUV
Chroma subsampling                       : 4:2:0
Bit depth                                : 8 bits
Scan type                                : Progressive
Bits/(Pixel*Frame)                       : 0.037
Stream size                              : 449 MiB (49%)
Writing library                          : x264 core 125 r2208 d9d2288
Encoding settings                        : cabac=1 / ref=3 / deblock=1:0:0 / analyse=0x3:0x113 / me=hex / subme=7 / psy=1 / psy_rd=1.00:0.00 / mixed_ref=1 / me_range=16 / chroma_me=1 / trellis=1 / 8x8dct=1 / cqm=0 / deadzone=21,11 / fast_pskip=1 / chroma_qp_offset=-2 / threads=6 / lookahead_threads=1 / sliced_threads=0 / nr=0 / decimate=1 / interlaced=0 / bluray_compat=0 / constrained_intra=0 / bframes=4 / b_pyramid=1 / b_adapt=2 / b_bias=0 / direct=1 / weightb=1 / open_gop=0 / weightp=2 / keyint=250 / keyint_min=23 / scenecut=40 / intra_refresh=0 / rc_lookahead=40 / rc=2pass / mbtree=1 / bitrate=791 / ratetol=1.0 / qcomp=0.60 / qpmin=0 / qpmax=51 / qpstep=4 / cplxblur=20.0 / qblur=0.5 / ip_ratio=1.40 / aq=1:1.00
Default                                  : Yes
Forced                                   : No
Matrix coefficients                      : SMPTE 240M

Audio
ID                                       : 2
Format                                   : DTS
Format/Info                              : Digital Theater Systems
Mode                                     : 16
Format settings, Endianness              : Big
Muxing mode                              : Header stripping
Codec ID                                 : A_DTS
Duration                                 : 1h 23mn
Bit rate mode                            : Constant
Bit rate                                 : 755 Kbps
Channel(s)                               : 6 channels
Channel positions                        : Front: L C R, Side: L R, LFE
Sampling rate                            : 48.0 KHz
Bit depth                                : 24 bits
Compression mode                         : Lossy
Delay relative to video                  : -42ms
Stream size                              : 449 MiB (49%)
Title                                    : DTS-ES 6.1 768 kbps
Language                                 : Japanese
Default                                  : Yes
Forced                                   : No


Serbian subs included!!!